<?xml version="1.0" encoding="iso-8859-1"?>
<!-- Generator: Adobe Illustrator 19.0.0, SVG Export Plug-In . SVG Version: 6.00 Build 0)  -->
<svg version="1.1" id="Layer_1" xmlns="http://www.w3.org/2000/svg" xmlns:xlink="http://www.w3.org/1999/xlink" x="0px" y="0px"
	 viewBox="0 0 511.989 511.989" style="enable-background:new 0 0 511.989 511.989;" xml:space="preserve">
<g>
	<g>
		<path d="M356.461,199.53l-66.758-7.595l-33.669-65.755l42.502,47.646l7.594-32.959c3.591-15.586-6.133-31.133-21.72-34.725
			c-54.831-12.633-50.192-11.58-51.397-11.81c-8.889-2.333-17.461-2.449-24.103,1.668c-7.327,4.541-61.322,37.999-68.564,42.486
			c-3.518,2.18-6.247,5.425-7.791,9.264l-29.285,72.835h-2.688c-9.518,0-17.261,7.743-17.261,17.261v22.24H57.891
			c-6.416,0-11.618,5.202-11.618,11.618v87.665c0,6.416,5.202,11.618,11.618,11.618h31.126c0.089-14.111,7.675-27.738,20.974-34.905
			l45.447-24.492c-1.87-13.439-3.195-22.95-5.37-38.583c-0.738-5.302-0.369-10.608,1.095-15.785l5.937-26.291
			c-2.193-4.993-6.679-8.752-12.122-9.941l21.245-52.839c9.618-5.96,15.483-9.594,24.902-15.431l-24.501,108.487
			c-0.906,3.021-1.213,6.271-0.75,9.599l4.552,32.705l103.085-55.554l-0.655-0.075c-17.175-1.955-28.783-15.187-31.086-24.495
			l-19.078-77.091l37.179,72.612c2.963,5.785,8.621,9.71,15.094,10.447l77.106,8.772c10.634,1.209,20.28-6.425,21.495-17.103
			C374.778,210.353,367.107,200.742,356.461,199.53z M139.179,260.088h-0.001h-36.477v-20.123h2.425
			c2.081,2.931,4.986,5.329,8.569,6.768c8.52,3.424,18.005,0.383,23.079-6.768h2.406V260.088z"/>
	</g>
</g>
<g>
	<g>
		<path d="M224.661,364.93l-44.016,23.72l-10.263,97.983c-1.396,13.327,9.041,24.984,22.53,24.984
			c11.436-0.001,21.257-8.644,22.475-20.27l11.25-107.407C228.113,372.606,224.661,364.93,224.661,364.93z"/>
	</g>
</g>
<g>
	<g>
		<circle cx="279.59" cy="42.872" r="42.872"/>
	</g>
</g>
<g>
	<g>
		<path d="M465.716,197.371c0.055-12.976-13.854-21.302-25.27-15.094l-49.374,26.858c1.175,4.441,1.57,9.164,1.02,13.996
			c-2.367,20.798-21.17,35.911-42.131,33.523l-38.247-4.352L120.749,356.183c-5.503,2.993-8.928,8.757-8.928,15.02
			c0,14.415,0,111.085,0,123.113c0,9.443,7.655,17.099,17.099,17.099s17.099-7.655,17.099-17.099c0-13.261,0-100.786,0-112.95
			l285.377-155.234c-0.036,8.367-0.776,182.329-0.818,192.382H342.9c-3.131,0-5.668,2.538-5.668,5.668v41.069H282.13
			c7.848-2.24,14.216-8.648,15.974-17.194l22.782-110.751c1.404-6.826-0.416-13.919-4.934-19.225l-1.372-1.611l-40.05,21.584
			l-20.749,100.887c-2.407,11.701,4.702,23.128,16.026,26.312h-25.449c-3.131,0-5.668,2.538-5.668,5.668v35.4
			c0,3.131,2.538,5.668,5.668,5.668h214.891c3.131,0,5.668-2.538,5.668-5.668C464.917,357.351,464.755,423.436,465.716,197.371z"/>
	</g>
</g>
<g>
</g>
<g>
</g>
<g>
</g>
<g>
</g>
<g>
</g>
<g>
</g>
<g>
</g>
<g>
</g>
<g>
</g>
<g>
</g>
<g>
</g>
<g>
</g>
<g>
</g>
<g>
</g>
<g>
</g>
</svg>
