<?xml version="1.0" encoding="iso-8859-1"?>
<!-- Generator: Adobe Illustrator 19.0.0, SVG Export Plug-In . SVG Version: 6.00 Build 0)  -->
<svg version="1.1" id="Layer_1" xmlns="http://www.w3.org/2000/svg" xmlns:xlink="http://www.w3.org/1999/xlink" x="0px" y="0px"
	 viewBox="0 0 512.002 512.002" style="enable-background:new 0 0 512.002 512.002;" xml:space="preserve">
<g>
	<g>
		<path d="M494.867,184.863h-33.976c-0.595-1.05-1.303-2.056-2.142-2.993l-31.63-35.328c-3.25-3.63-7.892-5.704-12.764-5.704
			h-65.802c-6.805,0-12.965,4.027-15.694,10.261L288.366,252.71h-40.528l-14.791-138h5.59c9.462,0,17.133-7.671,17.133-17.133
			s-7.671-17.133-17.133-17.133h-24.7c-0.019,0-0.039,0-0.059,0H34.29c-9.462,0-17.133,7.671-17.133,17.133
			s7.671,17.133,17.133,17.133h7.525v105.193c-2.274-1.115-4.821-1.759-7.525-1.759c-9.462,0-17.133,7.671-17.133,17.133v58.424
			c0,7.763,5.166,14.311,12.246,16.416C11.683,322.045,0,342.285,0,365.205c0,36.587,29.766,66.354,66.354,66.354H357.3
			c36.587,0,66.354-29.766,66.354-66.354c0-36.587-29.766-66.354-66.354-66.354H252.784l-1.272-11.874h48.056
			c6.805,0,12.965-4.027,15.694-10.26l44.493-101.611h46.944l8.925,9.968c-8.25,1.234-14.585,8.329-14.585,16.923v49.485
			c0,7.022,4.286,13.333,10.812,15.925c25.661,10.186,46.016,29.669,57.319,54.857l10.067,22.441
			c2.805,6.253,8.99,10.121,15.625,10.121c1.189,0,2.393-0.125,3.593-0.38c7.902-1.692,13.547-8.674,13.547-16.754V201.996
			C512,192.534,504.329,184.863,494.867,184.863z M130.604,114.71h67.98l11.086,103.436h-79.066V114.71z M76.082,114.71
			c0,0,20.256,0,20.256,0v103.436H76.082V114.71z M76.082,252.412h135.744c0.509,0,1.011-0.033,1.509-0.076l4.986,46.516H76.082
			V252.412z M357.3,333.118c17.693,0,32.087,14.394,32.087,32.087s-14.394,32.087-32.087,32.087H66.354
			c-17.693,0-32.087-14.394-32.087-32.087s14.394-32.087,32.087-32.087H357.3z M477.734,272.924
			c-11.822-13.415-26.176-24.465-42.43-32.545v-21.25h42.43V272.924z"/>
	</g>
</g>
<g>
	<g>
		<circle cx="70.28" cy="365.201" r="16.409"/>
	</g>
</g>
<g>
	<g>
		<circle cx="355.503" cy="365.201" r="16.409"/>
	</g>
</g>
<g>
</g>
<g>
</g>
<g>
</g>
<g>
</g>
<g>
</g>
<g>
</g>
<g>
</g>
<g>
</g>
<g>
</g>
<g>
</g>
<g>
</g>
<g>
</g>
<g>
</g>
<g>
</g>
<g>
</g>
</svg>
